<svg xmlns="http://www.w3.org/2000/svg" width="101" height="30" fill="currentColor" aria-label="15Five"><path d="M15.156 27.131a1.7 1.7 0 0 1-1.705-1.692c0-.928.77-1.693 1.705-1.693s1.705.765 1.705 1.693-.77 1.692-1.705 1.692M6.6 27.579v-.131c0-4.684 3.838-8.495 8.556-8.495h.121v3.385h-.12c-2.838 0-5.137 2.293-5.137 5.099v.12H6.6zM24.11 20.668c-.177 0-.353-.033-.529-.088a1.704 1.704 0 0 1-1.1-2.14 1.703 1.703 0 0 1 2.156-1.08 1.704 1.704 0 0 1 1.1 2.14 1.7 1.7 0 0 1-1.628 1.168M23.405 27.666a8.44 8.44 0 0 1-4.971-4.225 8.4 8.4 0 0 1-.517-6.475l.033-.12 3.245 1.048-.034.12c-.88 2.675.605 5.558 3.3 6.431l.121.033-1.056 3.22zM20.689 10.208c-.363 0-.704-.11-1.001-.328a1.63 1.63 0 0 1-.682-1.103 1.69 1.69 0 0 1 .308-1.266 1.72 1.72 0 0 1 1.386-.699c.363 0 .704.11 1 .328.374.262.616.655.682 1.102s-.033.896-.308 1.267a1.72 1.72 0 0 1-1.385.699M21.876 15.372a8.5 8.5 0 0 1-5.015-1.616l-.1-.076 2.003-2.74.099.076a5.14 5.14 0 0 0 3.827.906 5.13 5.13 0 0 0 3.355-2.042l.077-.098 2.76 1.987-.077.098a8.6 8.6 0 0 1-6.929 3.505M9.613 10.208c-.55 0-1.067-.262-1.386-.699a1.74 1.74 0 0 1-.308-1.267c.066-.447.32-.84.682-1.102a1.74 1.74 0 0 1 1-.328c.55 0 1.068.262 1.387.699.264.371.374.819.308 1.266s-.32.841-.682 1.103a1.66 1.66 0 0 1-1.001.328M11.34 11.081l.099-.076a5.08 5.08 0 0 0 2.057-3.33 5.04 5.04 0 0 0-.913-3.8l-.077-.098 2.76-1.987.077.098a8.42 8.42 0 0 1 1.53 6.322c-.353 2.238-1.574 4.203-3.421 5.546l-.1.077zM6.192 20.668c-.736 0-1.396-.47-1.627-1.169a1.704 1.704 0 0 1 1.1-2.14c.176-.054.351-.087.527-.087.737 0 1.397.47 1.628 1.168a1.704 1.704 0 0 1-1.1 2.14 1.8 1.8 0 0 1-.528.088M9.14 18.014a5.1 5.1 0 0 0-2.552-2.97 5.1 5.1 0 0 0-2.331-.556 5.3 5.3 0 0 0-1.595.25l-.11.044-1.056-3.231.121-.033a8.5 8.5 0 0 1 2.65-.415c1.354 0 2.651.317 3.872.928a8.48 8.48 0 0 1 4.257 4.946l.033.12-3.245 1.048zM82.226 15.46c-.297.862-.528 1.9-.671 2.674h-.253a24 24 0 0 0-.671-2.696l-2.024-5.94h-3.332v.23l4.344 10.95h3.608l4.344-10.95v-.23h-3.333zM96.029 16.824v.295c0 .644-.507 1.507-2.233 1.507-1.683 0-2.618-.94-2.618-3.156h7.93c.066-.524.143-1.32.143-1.9 0-2.51-1.958-4.312-5.4-4.312-4.092 0-5.884 2.555-5.884 5.82 0 3.7 1.98 5.819 5.818 5.819 4.641 0 5.378-2.326 5.378-3.603 0-.11-.022-.273-.044-.415zm-2.156-5.404c1.265 0 2.343.644 2.343 1.9 0 .065 0 .185-.022.294h-4.917c.132-1.54 1.122-2.194 2.596-2.194M61.636 9.498h-2.255v2.599h2.255v8.582h3.31v-8.582h5.467v8.582h3.31V9.499h-8.776v-.59c0-1.442.275-2.206 2.441-2.206h6.335V4.017h-6.665c-4.058 0-5.422 1.3-5.422 5.481M39.056 9.498c-.55 1.212-1.606 1.845-3.244 1.845h-1.254v2.566h3.86v4.083h-3.86v2.686h11.13v-2.697h-3.86V9.499zM54.102 14.793c-1.495 0-2.738.524-3.354 1.027h-.187l.297-3.723h7.083V9.498h-9.954l-.825 8.625h3.146c.44-.611 1.33-1.19 2.464-1.19 1.836 0 2.991.961 2.991 2.97 0 1.693-1.056 2.948-2.826 2.948-2.068 0-2.761-1.277-2.761-2.49 0-.065 0-.141.022-.272l-3.377.065a1.8 1.8 0 0 0-.044.415c0 2.555 1.914 4.902 6.259 4.902 3.651 0 6.324-2.15 6.324-5.611-.011-3.145-1.969-5.067-5.258-5.067"></path></svg>